<?xml version="1.0" encoding="UTF-8" standalone="no"?>
<!-- Created with Inkscape (http://www.inkscape.org/) -->

<svg
   width="100mm"
   height="100mm"
   viewBox="0 0 100 100"
   version="1.1"
   id="svg1"
   xml:space="preserve"
   xmlns="http://www.w3.org/2000/svg"
   xmlns:svg="http://www.w3.org/2000/svg"><defs
     id="defs1" /><g
     id="layer1"><path
       id="path1"
       style="fill:#ff9633;stroke:#ff9633;stroke-width:6.91689;stroke-dasharray:none"
       d="m 38.655828,15.011316 c -1.45671,0 -3.028243,0.225994 -4.373726,0.67449 -7.287136,2.802192 -8.743907,8.406701 -8.63268,16.705642 0.114815,5.155891 1.12309,9.978065 2.020078,11.660816 4.147676,7.064682 3.699181,9.41809 0,10.203851 -2.690966,0.56331 -12.446542,5.270878 -17.268753,8.299112 C 4.5703625,66.443303 1.8591356,74.49281 5.7754309,76.18241 2.4877349,74.106592 5.2097689,66.514893 10.818558,62.77459 c 4.822211,-3.028233 14.577787,-7.735235 17.268753,-8.298544 3.699181,-0.785762 4.147675,-3.139736 0,-10.204418 -0.896989,-1.682751 -1.904698,-6.504926 -2.019513,-11.660816 -0.111226,-8.298939 1.34498,-13.903449 8.632115,-16.705641 1.345482,-0.448495 2.917016,-0.674491 4.373726,-0.674491 2.094949,0 4.126636,0.508063 5.910408,1.404387 -1.88125,-1.032545 -4.067775,-1.623751 -6.328219,-1.623751 z m 6.328219,1.623751 c 2.132024,1.170185 3.872132,2.906996 4.884258,4.992244 2.579739,5.270706 1.345379,19.062839 -1.345587,24.107502 -2.784938,4.899772 -2.939127,6.918516 -0.667708,7.960455 -1.8216,-1.101351 -1.515602,-3.164159 1.085519,-7.740524 2.690965,-5.044664 3.925325,-18.836797 1.345586,-24.107504 -1.077513,-2.219958 -2.979907,-4.045316 -5.302068,-5.212173 z m 2.870963,37.060201 c 1.126528,0.681102 2.935421,0.431229 14.387611,6.430551 C 51.378106,54.400348 48.408883,53.949334 47.85501,53.695268 Z m 14.387611,6.430551 c 1.211373,0.638376 2.440861,1.303227 3.660227,1.981068 4.59617,2.579739 7.175866,6.838192 6.727372,11.211909 -0.226041,2.690965 -0.111119,2.691023 -3.587854,3.139518 -2.131245,0.226041 -15.697194,0.337529 -29.489291,0.337529 -15.697301,0 -32.069236,-0.111083 -33.2999042,-0.448344 -0.1689483,-0.04535 -0.3282896,-0.100613 -0.4777399,-0.165089 0.2603119,0.164364 0.5583371,0.29389 0.8955505,0.384457 1.2306691,0.337267 17.6026026,0.44834 33.2999036,0.44834 13.792098,0 27.358046,-0.110958 29.489292,-0.336963 3.476727,-0.448494 3.361815,-0.448552 3.587857,-3.139517 C 73.496528,69.16501 70.916828,64.905989 66.320659,62.326251 64.960778,61.570287 63.5885,60.830867 62.242621,60.125819 Z m 7.715082,-41.91958 c -0.558508,0 -1.144123,0.05472 -1.729476,0.151519 0.45806,-0.0613 0.912654,-0.09499 1.350674,-0.09499 3.699181,0 7.175407,2.020134 8.632117,5.159594 1.905203,4.147674 1.008369,14.911462 -1.008061,18.947911 -2.468513,4.484943 -2.242472,5.830081 0.559721,6.504617 1.793977,0.448494 7.513398,3.250948 13.117784,6.390409 l -0.0039,-0.0034 c 3.587956,1.905205 5.608236,5.381951 5.270968,8.747451 -0.09487,1.722187 -0.108507,2.056817 -1.778096,2.327077 2.046577,-0.286635 2.055388,-0.539977 2.156895,-2.383615 0.337268,-3.365502 -1.683012,-6.842247 -5.270969,-8.747451 l 0.0039,0.0034 c -5.604382,-3.13945 -11.323807,-5.941908 -13.117784,-6.390402 -2.802193,-0.674535 -3.02823,-2.019674 -0.559717,-6.504617 2.01643,-4.036446 2.91326,-14.800234 1.008061,-18.94791 -1.45671,-3.13946 -4.932936,-5.159593 -8.632117,-5.159593 z m 24.411675,48.130204 c -0.195795,0.02742 -0.410128,0.05535 -0.645089,0.0848 -1.345487,0.226041 -8.410291,0.336963 -16.705642,0.336963 -1.456709,-3.476729 -4.262555,-6.616253 -8.072962,-8.63268 -4.373717,-2.468513 -9.529524,-5.044625 -13.454747,-6.727375 2.57974,-1.234256 4.821913,-2.242379 5.830128,-2.46842 2.802193,-0.674535 3.13946,-2.242231 0,-7.850204 -0.785761,-1.345483 -1.682703,-5.159906 -1.79393,-9.196354 -0.111227,-6.504961 1.345551,-10.989563 6.953524,-13.11722 0.564518,-0.169536 1.155913,-0.310359 1.747567,-0.4082 -0.716336,0.09586 -1.441364,0.259017 -2.126369,0.464737 -5.607973,2.127657 -7.064747,6.612257 -6.953521,13.117219 0.111227,4.036448 1.008166,7.850875 1.793928,9.196357 3.139459,5.607973 2.802192,7.175668 0,7.850204 -1.008216,0.226042 -3.250386,1.234163 -5.830125,2.468419 3.925223,1.682751 9.08103,4.25886 13.454746,6.727372 3.810408,2.01643 6.61625,5.155952 8.072959,8.63268 8.29535,0 15.360159,-0.110922 16.705642,-0.336963 0.396755,-0.04973 0.735157,-0.0946 1.023891,-0.141339 z" /></g></svg>
